HIERARCHY
ROOT hip
{
  OFFSET 0 0 0
  CHANNELS 6 Xposition Yposition Zposition Zrotation Yrotation Xrotation
  JOINT abdomen
  {
    OFFSET 0 20.6881 -0.73152
    CHANNELS 3 Zrotation Xrotation Yrotation
    JOINT chest
    {
      OFFSET 0 11.7043 -0.48768
      CHANNELS 3 Zrotation Xrotation Yrotation
      JOINT neck
      {
        OFFSET 0 22.1894 -2.19456
        CHANNELS 3 Zrotation Xrotation Yrotation
        JOINT head
        {
          OFFSET -0.24384 7.07133 1.2192
          CHANNELS 3 Zrotation Xrotation Yrotation
          JOINT leftEye
          {
            OFFSET 4.14528 8.04674 8.04672
            CHANNELS 3 Zrotation Xrotation Yrotation
            End Site
            {
              OFFSET 1 0 0
            }
          }
          JOINT rightEye
          {
            OFFSET -3.6576 8.04674 8.04672
            CHANNELS 3 Zrotation Xrotation Yrotation
            End Site
            {
              OFFSET 1 0 0
            }
          }
        }
      }
      JOINT rCollar
      {
        OFFSET -2.68224 19.2634 -4.8768
        CHANNELS 3 Zrotation Xrotation Yrotation
        JOINT rShldr
        {
          OFFSET -8.77824 -1.95073 1.46304
          CHANNELS 3 Zrotation Xrotation Yrotation
          JOINT rForeArm
          {
            OFFSET -28.1742 -1.7115 0.48768
            CHANNELS 3 Zrotation Xrotation Yrotation
            JOINT rHand
            {
              OFFSET -22.5879 0.773209 7.07136
              CHANNELS 3 Zrotation Xrotation Yrotation
              JOINT rThumb1
              {
                OFFSET -1.2192 -0.487915 3.41376
                CHANNELS 3 Zrotation Xrotation Yrotation
                JOINT rThumb2
                {
                  OFFSET -3.37035 -0.52449 3.41376
                  CHANNELS 3 Zrotation Xrotation Yrotation
                  End Site
                  {
                    OFFSET -1.78271 -1.18214 1.43049
                  }
                }
              }
              JOINT rIndex1
              {
                OFFSET -7.75947 0.938293 5.60832
                CHANNELS 3 Zrotation Xrotation Yrotation
                JOINT rIndex2
                {
                  OFFSET -2.54057 -0.884171 1.56538
                  CHANNELS 3 Zrotation Xrotation Yrotation
                  End Site
                  {
                    OFFSET -1.62519 -0.234802 1.16502
                  }
                }
              }
              JOINT rMid1
              {
                OFFSET -8.24714 1.18213 3.41376
                CHANNELS 3 Zrotation Xrotation Yrotation
                JOINT rMid2
                {
                  OFFSET -3.10165 -0.590103 1.0647
                  CHANNELS 3 Zrotation Xrotation Yrotation
                  End Site
                  {
                    OFFSET -2.48547 -0.328903 0.83742
                  }
                }
              }
              JOINT rRing1
              {
                OFFSET -8.82822 0.546677 1.51678
                CHANNELS 3 Zrotation Xrotation Yrotation
                JOINT rRing2
                {
                  OFFSET -2.60934 -0.819778 -0.0198488
                  CHANNELS 3 Zrotation Xrotation Yrotation
                  End Site
                  {
                    OFFSET -2.33842 -0.294052 0.168128
                  }
                }
              }
              JOINT rPinky1
              {
                OFFSET -8.27202 -0.0477905 -0.4584
                CHANNELS 3 Zrotation Xrotation Yrotation
                JOINT rPinky2
                {
                  OFFSET -1.82734 -0.647385 -0.700984
                  CHANNELS 3 Zrotation Xrotation Yrotation
                  End Site
                  {
                    OFFSET -1.69225 -0.51767 -0.607171
                  }
                }
              }
            }
          }
        }
      }
      JOINT lCollar
      {
        OFFSET 2.68224 19.2634 -4.8768
        CHANNELS 3 Zrotation Xrotation Yrotation
        JOINT lShldr
        {
          OFFSET 8.77824 -1.95073 1.46304
          CHANNELS 3 Zrotation Xrotation Yrotation
          JOINT lForeArm
          {
            OFFSET 28.1742 -1.7115 0.48768
            CHANNELS 3 Zrotation Xrotation Yrotation
            JOINT lHand
            {
              OFFSET 22.5879 0.773209 7.07136
              CHANNELS 3 Zrotation Xrotation Yrotation
              JOINT lThumb1
              {
                OFFSET 1.2192 -0.487915 3.41376
                CHANNELS 3 Zrotation Xrotation Yrotation
                JOINT lThumb2
                {
                  OFFSET 3.37035 -0.52449 3.41376
                  CHANNELS 3 Zrotation Xrotation Yrotation
                  End Site
                  {
                    OFFSET 1.78271 -1.18214 1.43049
                  }
                }
              }
              JOINT lIndex1
              {
                OFFSET 7.75947 0.938293 5.60832
                CHANNELS 3 Zrotation Xrotation Yrotation
                JOINT lIndex2
                {
                  OFFSET 2.54057 -0.884171 1.56538
                  CHANNELS 3 Zrotation Xrotation Yrotation
                  End Site
                  {
                    OFFSET 1.62519 -0.234802 1.16502
                  }
                }
              }
              JOINT lMid1
              {
                OFFSET 8.24714 1.18213 3.41376
                CHANNELS 3 Zrotation Xrotation Yrotation
                JOINT lMid2
                {
                  OFFSET 3.10165 -0.590103 1.0647
                  CHANNELS 3 Zrotation Xrotation Yrotation
                  End Site
                  {
                    OFFSET 2.48547 -0.328903 0.83742
                  }
                }
              }
              JOINT lRing1
              {
                OFFSET 8.82822 0.546677 1.51678
                CHANNELS 3 Zrotation Xrotation Yrotation
                JOINT lRing2
                {
                  OFFSET 2.60934 -0.819778 -0.0198488
                  CHANNELS 3 Zrotation Xrotation Yrotation
                  End Site
                  {
                    OFFSET 2.33842 -0.294052 0.168128
                  }
                }
              }
              JOINT lPinky1
              {
                OFFSET 8.27202 -0.0477905 -0.4584
                CHANNELS 3 Zrotation Xrotation Yrotation
                JOINT lPinky2
                {
                  OFFSET 1.82734 -0.647385 -0.700984
                  CHANNELS 3 Zrotation Xrotation Yrotation
                  End Site
                  {
                    OFFSET 1.69225 -0.51767 -0.607171
                  }
                }
              }
            }
          }
        }
      }
    }
  }
  JOINT rButtock
  {
    OFFSET -8.77824 4.35084 1.2192
    CHANNELS 3 Zrotation Xrotation Yrotation
    JOINT rThigh
    {
      OFFSET 0 -1.70687 -2.19456
      CHANNELS 3 Zrotation Xrotation Yrotation
      JOINT rShin
      {
        OFFSET 0 -36.8199 0.73152
        CHANNELS 3 Zrotation Xrotation Yrotation
        JOINT rFoot
        {
          OFFSET 0.73152 -45.1104 -5.12064
          CHANNELS 3 Zrotation Xrotation Yrotation
          End Site
          {
            OFFSET -1.1221 -3.69964 12.103
          }
        }
      }
    }
  }
  JOINT lButtock
  {
    OFFSET 8.77824 4.35084 1.2192
    CHANNELS 3 Zrotation Xrotation Yrotation
    JOINT lThigh
    {
      OFFSET 0 -1.70687 -2.19456
      CHANNELS 3 Zrotation Xrotation Yrotation
      JOINT lShin
      {
        OFFSET 0 -36.8199 0.73152
        CHANNELS 3 Zrotation Xrotation Yrotation
        JOINT lFoot
        {
          OFFSET -0.73152 -45.1104 -5.12064
          CHANNELS 3 Zrotation Xrotation Yrotation
          End Site
          {
            OFFSET 1.1221 -3.69964 12.103
          }
        }
      }
    }
  }
}
MOTION
Frames:	4
Frame Time:	0.00833333
-4.97746 83.8928 34.025 -1.6199 -3.7693 1.3208 -0.951948 5.75247 6.6641 0.367733 -2.19079 1.88059 -2.37859 4.24609 -5.05025 8.09164 15.9991 -10.4975 -0.0 0.0 0.0 -0.0 0.0 0.0 -1.33868e-14 -5.97827e-14 2.93695e-13 66.3169 57.8814 17.1267 -28.1877 -31.8687 70.2296 -2.10683 37.4406 6.18414 8.79698e-10 2.20196e-09 4.15176e-10 1.52598e-09 3.85757e-09 6.90655e-10 8.79709e-10 2.20197e-09 4.15166e-10 7.73091 5.47488 0.417314 8.79696e-10 2.20197e-09 4.15177e-10 2.90554 0.965183 0.102902 8.79704e-10 2.20197e-09 4.1518e-10 10.2786 0.731801 0.0259123 8.79692e-10 2.20197e-09 4.15187e-10 2.22167 -0.733487 -0.20892 -1.33879e-14 -5.97865e-14 2.93583e-13 -70.8748 51.3314 -11.9227 28.295 -32.8226 -71.7734 0.0206937 4.16587 -0.586467 -1.78268e-10 3.2039e-09 -1.29713e-10 -3.10401e-10 5.54534e-09 -2.25168e-10 -1.78276e-10 3.2039e-09 -1.29702e-10 -7.73091 5.47488 -0.417314 -1.7827e-10 3.20391e-09 -1.29711e-10 -2.90554 0.965183 -0.102902 -1.78279e-10 3.2039e-09 -1.29713e-10 -10.2786 0.731801 -0.0259123 -1.78265e-10 3.2039e-09 -1.29725e-10 -2.22167 -0.733487 0.20892 -2.03217e-16 0.0 -3.88251e-19 -21.5896 -2.94639 -0.0136632 -0.000671913 -0.662435 -0.00537988 0.434836 3.60486 -0.00455071 2.03217e-16 0.0 3.88251e-19 8.66137 -8.28821 -3.07281 0.0469256 21.9052 -0.581711 6.04592 -17.8208 18.0568
-4.96645 83.8964 34.0519 -1.5972 -3.6937 1.2813 -1.04556 5.70085 6.71026 0.42458 -2.18069 1.89364 -3.00207 4.37441 -5.46367 8.74974 16.1362 -11.2923 -0.0 0.0 0.0 -0.0 0.0 0.0 -2.06061e-14 -2.19335e-14 3.40776e-13 65.8454 57.8585 17.3265 -28.1518 -31.6044 69.8116 -2.11706 37.5044 6.19932 3.63402e-10 3.27276e-10 5.97871e-10 6.39846e-10 6.20883e-10 1.02045e-09 3.63419e-10 3.27276e-10 5.97861e-10 7.73091 5.47488 0.417314 3.634e-10 3.27276e-10 5.97873e-10 2.90554 0.965183 0.102902 3.63408e-10 3.27277e-10 5.97876e-10 10.2786 0.731801 0.0259123 3.63399e-10 3.27279e-10 5.97883e-10 2.22167 -0.733487 -0.20892 -2.05902e-14 -2.19358e-14 3.40606e-13 -70.3862 52.6792 -13.0751 28.3214 -33.1095 -72.2385 0.0158963 3.64001 -0.512234 1.80216e-10 -4.89926e-09 -8.00451e-10 3.06474e-10 -8.46113e-09 -1.38642e-09 1.80211e-10 -4.89927e-09 -8.00446e-10 -7.73091 5.47488 -0.417314 1.80216e-10 -4.89925e-09 -8.00449e-10 -2.90554 0.965183 -0.102902 1.80206e-10 -4.89926e-09 -8.00452e-10 -10.2786 0.731801 -0.0259123 1.80222e-10 -4.89926e-09 -8.00466e-10 -2.22167 -0.733487 0.20892 -2.03217e-16 0.0 -3.88251e-19 -21.5873 -2.94729 -0.0137116 -0.000681613 -0.660156 -0.00546919 0.433241 3.60348 -0.00433752 2.03217e-16 0.0 3.88251e-19 8.60514 -8.29668 -3.06497 0.047004 21.9045 -0.581572 6.04135 -17.7835 18.0666
-4.94476 83.8964 34.0626 -1.5651 -3.6143 1.2889 -1.07735 5.69075 6.72516 0.40797 -2.20488 1.89717 -3.57838 4.55868 -5.86933 9.36549 16.1735 -12.0739 -0.0 0.0 0.0 -0.0 0.0 0.0 -2.16285e-14 7.15702e-15 3.40419e-13 65.0588 58.0182 17.6148 -28.136 -31.4951 69.6417 -2.00341 36.7556 6.02533 -9.19339e-11 -1.17362e-09 6.87563e-10 -1.43423e-10 -1.97622e-09 1.18736e-09 -9.19156e-11 -1.17363e-09 6.87553e-10 7.73091 5.47488 0.417314 -9.19361e-11 -1.17362e-09 6.87566e-10 2.90554 0.965183 0.102902 -9.19285e-11 -1.17362e-09 6.87568e-10 10.2786 0.731801 0.0259123 -9.19361e-11 -1.17362e-09 6.87575e-10 2.22167 -0.733487 -0.20892 -2.16086e-14 7.15567e-15 3.4022e-13 -69.7101 53.9663 -14.3691 28.3343 -33.279 -72.5235 0.0123675 3.17348 -0.446465 3.96073e-10 -9.81147e-09 -1.20305e-09 6.78239e-10 -1.69529e-08 -2.08331e-09 3.96068e-10 -9.81149e-09 -1.20305e-09 -7.73091 5.47488 -0.417314 3.96073e-10 -9.81147e-09 -1.20305e-09 -2.90554 0.965183 -0.102902 3.96063e-10 -9.81147e-09 -1.20306e-09 -10.2786 0.731801 -0.0259123 3.9608e-10 -9.81148e-09 -1.20307e-09 -2.22167 -0.733487 0.20892 -2.03217e-16 0.0 -3.88251e-19 -21.5849 -2.94934 -0.0137662 -0.000690589 -0.655397 -0.0055558 0.432314 3.60078 -0.00423704 2.03217e-16 0.0 3.88251e-19 8.55327 -8.32952 -3.09558 0.0473237 21.9326 -0.582357 6.04286 -17.7625 18.0794
-4.91324 83.896 34.0639 -1.5427 -3.4715 1.2867 -1.02056 5.75436 6.70933 0.272986 -2.29153 1.89075 -4.10417 4.82512 -6.28146 9.95232 16.0708 -12.8694 -0.0 0.0 0.0 -0.0 0.0 0.0 -1.22193e-14 2.56438e-14 2.59197e-13 63.7861 58.5334 18.1284 -28.1418 -31.5559 69.7564 -1.73726 34.7993 5.59353 -5.19677e-10 -2.27938e-09 6.34786e-10 -8.82553e-10 -3.9016e-09 1.10628e-09 -5.19662e-10 -2.27939e-09 6.34778e-10 7.73091 5.47488 0.417314 -5.19679e-10 -2.27938e-09 6.34787e-10 2.90554 0.965183 0.102902 -5.19673e-10 -2.27938e-09 6.34789e-10 10.2786 0.731801 0.0259123 -5.1968e-10 -2.27938e-09 6.34796e-10 2.22167 -0.733487 -0.20892 -1.22165e-14 2.56426e-14 2.59025e-13 -68.7614 55.2107 -15.8949 28.3337 -33.2829 -72.5359 0.00909078 2.71767 -0.382242 4.00038e-10 -1.00448e-08 -1.21647e-09 6.85965e-10 -1.73586e-08 -2.10611e-09 4.00033e-10 -1.00448e-08 -1.21646e-09 -7.73091 5.47488 -0.417314 4.00039e-10 -1.00448e-08 -1.21646e-09 -2.90554 0.965183 -0.102902 4.00029e-10 -1.00448e-08 -1.21647e-09 -10.2786 0.731801 -0.0259123 4.00043e-10 -1.00448e-08 -1.21648e-09 -2.22167 -0.733487 0.20892 -2.03217e-16 0.0 -3.88251e-19 -21.582 -2.95336 -0.0138364 -0.000699587 -0.64677 -0.00564847 0.432276 3.59623 -0.00428814 2.03217e-16 0.0 3.88251e-19 8.50448 -8.39357 -3.18143 0.0480378 22.0043 -0.584583 6.05446 -17.7652 18.0992
